<svg xmlns="http://www.w3.org/2000/svg" viewBox="0 0 200 240" fill="none">
  <!-- Hoodie silhouette -->
  <path d="M40 60 L40 200 C40 220 60 240 80 240 L120 240 C140 240 160 220 160 200 L160 60 C160 40 140 20 120 20 L100 20 L80 20 C60 20 40 40 40 60 Z" fill="#000000" stroke="#1a1a1a" stroke-width="2"/>
  <!-- Hood -->
  <path d="M40 60 C40 50 45 40 50 35 L50 25 C50 20 55 15 60 15 L80 15 C85 15 90 20 90 25 L90 35 C95 40 100 50 100 60 L100 80 C100 85 95 90 90 90 L50 90 C45 90 40 85 40 80 Z" fill="#000000" stroke="#1a1a1a" stroke-width="2"/>
  <!-- Sleeves -->
  <path d="M20 80 L20 180 C20 190 25 200 35 200 L45 200 C55 200 60 190 60 180 L60 80 C60 70 55 60 45 60 L35 60 C25 60 20 70 20 80 Z" fill="#000000" stroke="#1a1a1a" stroke-width="2"/>
  <path d="M140 80 L140 180 C140 190 145 200 155 200 L165 200 C175 200 180 190 180 180 L180 80 C180 70 175 60 165 60 L155 60 C145 60 140 70 140 80 Z" fill="#000000" stroke="#1a1a1a" stroke-width="2"/>
  <!-- Pocket -->
  <path d="M70 140 L130 140 C135 140 140 145 140 150 L140 170 C140 175 135 180 130 180 L70 180 C65 180 60 175 60 170 L60 150 C60 145 65 140 70 140 Z" fill="#1a1a1a" stroke="#2a2a2a" stroke-width="1"/>
</svg>

